<svg xmlns="http://www.w3.org/2000/svg" viewBox="0 0 64 64"><defs><style>.cls-2{fill:#8bc4ff}.cls-3{fill:#2e58ff}</style></defs><g id="find_question" data-name="find question"><circle cx="23" cy="23" r="21" style="fill:#d1e7ff"/><path class="cls-2" d="m37.85 37.85 4.24 4.24M62 57a5 5 0 0 1-8.45 3.62l-15-15 7.07-7.07 15 15A5 5 0 0 1 62 57z"/><path class="cls-3" d="m62 52.14-15-15a2 2 0 0 0-2.82 0l-2.13 2.12-1.48-1.49a23 23 0 0 0-33.87-31C-7.76 21.24 2.65 46 23 46a22.94 22.94 0 0 0 14.78-5.38l1.49 1.48-2.12 2.13a2 2 0 0 0 0 2.82l15 15A7 7 0 0 0 62 52.14zM9.56 36.44C-2.42 24.46 6.19 4 23 4s25.43 20.44 13.44 32.44a19 19 0 0 1-26.88 0zm48.6 23.32a2.9 2.9 0 0 1-3.2-.55L41.39 45.63l4.24-4.24 13.55 13.54a3 3 0 0 1-1.02 4.83z"/><path class="cls-3" d="M24 37a2 2 0 1 1 2-2 2 2 0 0 1-2 2zm2-2zm-2 0zM24 29a2 2 0 0 1-2-2 8.65 8.65 0 0 1 3.45-6.84 4 4 0 1 0-6.1-1.52 2 2 0 0 1-3.64 1.66 8 8 0 1 1 12.19 3A4.68 4.68 0 0 0 26 27a2 2 0 0 1-2 2z"/></g></svg>